{
	"patcher" : 	{
		"fileversion" : 1,
		"appversion" : 		{
			"major" : 5,
			"minor" : 1,
			"revision" : 9
		}
,
		"rect" : [ 238.0, 131.0, 150.0, 248.0 ],
		"bglocked" : 0,
		"defrect" : [ 238.0, 131.0, 150.0, 248.0 ],
		"openrect" : [ 0.0, 0.0, 0.0, 0.0 ],
		"openinpresentation" : 0,
		"default_fontsize" : 9.0,
		"default_fontface" : 0,
		"default_fontname" : "Monaco",
		"gridonopen" : 0,
		"gridsize" : [ 10.0, 10.0 ],
		"gridsnaponopen" : 0,
		"toolbarvisible" : 1,
		"boxanimatetime" : 200,
		"imprint" : 0,
		"enablehscroll" : 1,
		"enablevscroll" : 1,
		"devicewidth" : 0.0,
		"boxes" : [ 			{
				"box" : 				{
					"maxclass" : "comment",
					"text" : "[x1, y1, x2, y2]",
					"numinlets" : 1,
					"fontname" : "Monaco",
					"numoutlets" : 0,
					"patching_rect" : [ 7.0, 22.0, 97.0, 19.0 ],
					"id" : "obj-1",
					"fontsize" : 9.0
				}

			}
, 			{
				"box" : 				{
					"maxclass" : "comment",
					"text" : "[x, y, width, height]",
					"numinlets" : 1,
					"fontname" : "Monaco",
					"numoutlets" : 0,
					"patching_rect" : [ 7.0, 194.0, 124.0, 19.0 ],
					"id" : "obj-2",
					"fontsize" : 9.0
				}

			}
, 			{
				"box" : 				{
					"maxclass" : "newobj",
					"text" : "!-",
					"numinlets" : 2,
					"fontname" : "Monaco",
					"numoutlets" : 1,
					"patching_rect" : [ 59.0, 116.0, 32.5, 19.0 ],
					"outlettype" : [ "int" ],
					"id" : "obj-3",
					"fontsize" : 9.0
				}

			}
, 			{
				"box" : 				{
					"maxclass" : "newobj",
					"text" : "t i i",
					"numinlets" : 1,
					"fontname" : "Monaco",
					"numoutlets" : 2,
					"patching_rect" : [ 20.0, 76.0, 38.0, 19.0 ],
					"outlettype" : [ "int", "int" ],
					"id" : "obj-4",
					"fontsize" : 9.0
				}

			}
, 			{
				"box" : 				{
					"maxclass" : "newobj",
					"text" : "t i i",
					"numinlets" : 1,
					"fontname" : "Monaco",
					"numoutlets" : 2,
					"patching_rect" : [ 48.0, 76.0, 38.0, 19.0 ],
					"outlettype" : [ "int", "int" ],
					"id" : "obj-5",
					"fontsize" : 9.0
				}

			}
, 			{
				"box" : 				{
					"maxclass" : "newobj",
					"text" : "pack i i i i",
					"numinlets" : 4,
					"fontname" : "Monaco",
					"numoutlets" : 1,
					"patching_rect" : [ 20.0, 151.0, 75.0, 19.0 ],
					"outlettype" : [ "" ],
					"id" : "obj-6",
					"fontsize" : 9.0
				}

			}
, 			{
				"box" : 				{
					"maxclass" : "newobj",
					"text" : "!-",
					"numinlets" : 2,
					"fontname" : "Monaco",
					"numoutlets" : 1,
					"patching_rect" : [ 87.0, 116.0, 32.5, 19.0 ],
					"outlettype" : [ "int" ],
					"id" : "obj-7",
					"fontsize" : 9.0
				}

			}
, 			{
				"box" : 				{
					"maxclass" : "newobj",
					"text" : "unpack i i i i",
					"numinlets" : 1,
					"fontname" : "Monaco",
					"numoutlets" : 4,
					"patching_rect" : [ 20.0, 57.0, 86.0, 19.0 ],
					"outlettype" : [ "int", "int", "int", "int" ],
					"id" : "obj-8",
					"fontsize" : 9.0
				}

			}
, 			{
				"box" : 				{
					"maxclass" : "outlet",
					"numinlets" : 1,
					"numoutlets" : 0,
					"patching_rect" : [ 20.0, 178.0, 25.0, 25.0 ],
					"id" : "obj-9",
					"comment" : "[x, y, width, height]"
				}

			}
, 			{
				"box" : 				{
					"maxclass" : "inlet",
					"numinlets" : 0,
					"numoutlets" : 1,
					"patching_rect" : [ 20.0, 36.0, 25.0, 25.0 ],
					"outlettype" : [ "" ],
					"id" : "obj-10",
					"comment" : "[x1, y1, x2, y2]"
				}

			}
 ],
		"lines" : [ 			{
				"patchline" : 				{
					"source" : [ "obj-7", 0 ],
					"destination" : [ "obj-6", 3 ],
					"hidden" : 0,
					"midpoints" : [  ]
				}

			}
, 			{
				"patchline" : 				{
					"source" : [ "obj-8", 3 ],
					"destination" : [ "obj-7", 1 ],
					"hidden" : 0,
					"midpoints" : [  ]
				}

			}
, 			{
				"patchline" : 				{
					"source" : [ "obj-5", 1 ],
					"destination" : [ "obj-7", 0 ],
					"hidden" : 0,
					"midpoints" : [  ]
				}

			}
, 			{
				"patchline" : 				{
					"source" : [ "obj-3", 0 ],
					"destination" : [ "obj-6", 2 ],
					"hidden" : 0,
					"midpoints" : [  ]
				}

			}
, 			{
				"patchline" : 				{
					"source" : [ "obj-8", 2 ],
					"destination" : [ "obj-3", 1 ],
					"hidden" : 0,
					"midpoints" : [  ]
				}

			}
, 			{
				"patchline" : 				{
					"source" : [ "obj-4", 1 ],
					"destination" : [ "obj-3", 0 ],
					"hidden" : 0,
					"midpoints" : [  ]
				}

			}
, 			{
				"patchline" : 				{
					"source" : [ "obj-5", 0 ],
					"destination" : [ "obj-6", 1 ],
					"hidden" : 0,
					"midpoints" : [  ]
				}

			}
, 			{
				"patchline" : 				{
					"source" : [ "obj-8", 1 ],
					"destination" : [ "obj-5", 0 ],
					"hidden" : 0,
					"midpoints" : [  ]
				}

			}
, 			{
				"patchline" : 				{
					"source" : [ "obj-6", 0 ],
					"destination" : [ "obj-9", 0 ],
					"hidden" : 0,
					"midpoints" : [  ]
				}

			}
, 			{
				"patchline" : 				{
					"source" : [ "obj-4", 0 ],
					"destination" : [ "obj-6", 0 ],
					"hidden" : 0,
					"midpoints" : [  ]
				}

			}
, 			{
				"patchline" : 				{
					"source" : [ "obj-8", 0 ],
					"destination" : [ "obj-4", 0 ],
					"hidden" : 0,
					"midpoints" : [  ]
				}

			}
, 			{
				"patchline" : 				{
					"source" : [ "obj-10", 0 ],
					"destination" : [ "obj-8", 0 ],
					"hidden" : 0,
					"midpoints" : [  ]
				}

			}
 ]
	}

}
