{
	"patcher" : 	{
		"fileversion" : 1,
		"appversion" : 		{
			"major" : 5,
			"minor" : 1,
			"revision" : 9
		}
,
		"rect" : [ 40.0, 55.0, 266.0, 388.0 ],
		"bglocked" : 0,
		"defrect" : [ 40.0, 55.0, 266.0, 388.0 ],
		"openrect" : [ 0.0, 0.0, 0.0, 0.0 ],
		"openinpresentation" : 0,
		"default_fontsize" : 9.0,
		"default_fontface" : 0,
		"default_fontname" : "Monaco",
		"gridonopen" : 0,
		"gridsize" : [ 10.0, 10.0 ],
		"gridsnaponopen" : 0,
		"toolbarvisible" : 1,
		"boxanimatetime" : 200,
		"imprint" : 0,
		"enablehscroll" : 1,
		"enablevscroll" : 1,
		"devicewidth" : 0.0,
		"boxes" : [ 			{
				"box" : 				{
					"maxclass" : "newobj",
					"text" : "gate 2",
					"numinlets" : 2,
					"fontname" : "Geneva",
					"numoutlets" : 2,
					"patching_rect" : [ 130.0, 211.0, 39.0, 19.0 ],
					"outlettype" : [ "", "" ],
					"id" : "obj-1",
					"fontsize" : 9.0
				}

			}
, 			{
				"box" : 				{
					"maxclass" : "newobj",
					"text" : "unpack i i",
					"numinlets" : 1,
					"fontname" : "Geneva",
					"numoutlets" : 2,
					"patching_rect" : [ 77.0, 230.0, 51.0, 19.0 ],
					"outlettype" : [ "int", "int" ],
					"id" : "obj-2",
					"fontsize" : 9.0
				}

			}
, 			{
				"box" : 				{
					"maxclass" : "newobj",
					"text" : "t b 2",
					"numinlets" : 1,
					"fontname" : "Geneva",
					"numoutlets" : 2,
					"patching_rect" : [ 17.0, 91.0, 32.5, 19.0 ],
					"outlettype" : [ "bang", "int" ],
					"id" : "obj-3",
					"fontsize" : 9.0
				}

			}
, 			{
				"box" : 				{
					"maxclass" : "newobj",
					"text" : "t i 1",
					"numinlets" : 1,
					"fontname" : "Geneva",
					"numoutlets" : 2,
					"patching_rect" : [ 77.0, 91.0, 32.5, 19.0 ],
					"outlettype" : [ "int", "int" ],
					"id" : "obj-4",
					"fontsize" : 9.0
				}

			}
, 			{
				"box" : 				{
					"maxclass" : "newobj",
					"text" : "gate 2",
					"numinlets" : 2,
					"fontname" : "Geneva",
					"numoutlets" : 2,
					"patching_rect" : [ 52.0, 211.0, 39.0, 19.0 ],
					"outlettype" : [ "", "" ],
					"id" : "obj-5",
					"fontsize" : 9.0
				}

			}
, 			{
				"box" : 				{
					"maxclass" : "message",
					"text" : "clear",
					"numinlets" : 2,
					"fontname" : "Geneva",
					"numoutlets" : 1,
					"patching_rect" : [ 47.0, 91.0, 32.5, 17.0 ],
					"outlettype" : [ "" ],
					"id" : "obj-6",
					"fontsize" : 9.0
				}

			}
, 			{
				"box" : 				{
					"maxclass" : "newobj",
					"text" : "pack",
					"numinlets" : 2,
					"fontname" : "Geneva",
					"numoutlets" : 1,
					"patching_rect" : [ 77.0, 110.0, 32.5, 19.0 ],
					"outlettype" : [ "" ],
					"id" : "obj-7",
					"fontsize" : 9.0
				}

			}
, 			{
				"box" : 				{
					"maxclass" : "comment",
					"text" : "channel",
					"numinlets" : 1,
					"fontname" : "Geneva",
					"numoutlets" : 0,
					"patching_rect" : [ 177.0, 330.0, 43.0, 19.0 ],
					"id" : "obj-8",
					"fontsize" : 9.0
				}

			}
, 			{
				"box" : 				{
					"maxclass" : "comment",
					"text" : "velocity",
					"numinlets" : 1,
					"fontname" : "Geneva",
					"numoutlets" : 0,
					"patching_rect" : [ 130.0, 330.0, 44.0, 19.0 ],
					"id" : "obj-9",
					"fontsize" : 9.0
				}

			}
, 			{
				"box" : 				{
					"maxclass" : "comment",
					"text" : "pitch",
					"numinlets" : 1,
					"fontname" : "Geneva",
					"numoutlets" : 0,
					"patching_rect" : [ 98.0, 330.0, 32.0, 19.0 ],
					"id" : "obj-10",
					"fontsize" : 9.0
				}

			}
, 			{
				"box" : 				{
					"maxclass" : "comment",
					"text" : "channel",
					"numinlets" : 1,
					"fontname" : "Geneva",
					"numoutlets" : 0,
					"patching_rect" : [ 149.0, 33.0, 43.0, 19.0 ],
					"id" : "obj-11",
					"fontsize" : 9.0
				}

			}
, 			{
				"box" : 				{
					"maxclass" : "comment",
					"text" : "velocity",
					"numinlets" : 1,
					"fontname" : "Geneva",
					"numoutlets" : 0,
					"patching_rect" : [ 92.0, 33.0, 44.0, 19.0 ],
					"id" : "obj-12",
					"fontsize" : 9.0
				}

			}
, 			{
				"box" : 				{
					"maxclass" : "newobj",
					"text" : "unpack",
					"numinlets" : 1,
					"fontname" : "Geneva",
					"numoutlets" : 2,
					"patching_rect" : [ 52.0, 273.0, 41.0, 19.0 ],
					"outlettype" : [ "int", "int" ],
					"id" : "obj-13",
					"fontsize" : 9.0
				}

			}
, 			{
				"box" : 				{
					"maxclass" : "newobj",
					"text" : "midiparse",
					"numinlets" : 1,
					"fontname" : "Geneva",
					"numoutlets" : 7,
					"patching_rect" : [ 77.0, 171.0, 100.0, 19.0 ],
					"outlettype" : [ "", "", "", "int", "int", "int", "int" ],
					"id" : "obj-14",
					"fontsize" : 9.0
				}

			}
, 			{
				"box" : 				{
					"maxclass" : "newobj",
					"text" : "midiformat",
					"numinlets" : 7,
					"fontname" : "Geneva",
					"numoutlets" : 1,
					"patching_rect" : [ 77.0, 129.0, 100.0, 19.0 ],
					"outlettype" : [ "int" ],
					"id" : "obj-15",
					"fontsize" : 9.0
				}

			}
, 			{
				"box" : 				{
					"maxclass" : "newobj",
					"text" : "midiflush",
					"numinlets" : 1,
					"fontname" : "Geneva",
					"numoutlets" : 1,
					"patching_rect" : [ 77.0, 152.0, 49.0, 19.0 ],
					"outlettype" : [ "int" ],
					"id" : "obj-16",
					"fontsize" : 9.0
				}

			}
, 			{
				"box" : 				{
					"maxclass" : "newobj",
					"text" : "sel bang clear",
					"numinlets" : 1,
					"fontname" : "Geneva",
					"numoutlets" : 3,
					"patching_rect" : [ 17.0, 72.0, 70.0, 19.0 ],
					"outlettype" : [ "bang", "bang", "" ],
					"id" : "obj-17",
					"fontsize" : 9.0
				}

			}
, 			{
				"box" : 				{
					"maxclass" : "outlet",
					"numinlets" : 1,
					"numoutlets" : 0,
					"patching_rect" : [ 184.0, 314.0, 25.0, 25.0 ],
					"id" : "obj-18",
					"comment" : "channel (int)"
				}

			}
, 			{
				"box" : 				{
					"maxclass" : "outlet",
					"numinlets" : 1,
					"numoutlets" : 0,
					"patching_rect" : [ 137.0, 314.0, 25.0, 25.0 ],
					"id" : "obj-19",
					"comment" : "velocity (int)"
				}

			}
, 			{
				"box" : 				{
					"maxclass" : "outlet",
					"numinlets" : 1,
					"numoutlets" : 0,
					"patching_rect" : [ 106.0, 314.0, 25.0, 25.0 ],
					"id" : "obj-20",
					"comment" : "pitch (int)"
				}

			}
, 			{
				"box" : 				{
					"maxclass" : "inlet",
					"numinlets" : 0,
					"numoutlets" : 1,
					"patching_rect" : [ 155.0, 47.0, 25.0, 25.0 ],
					"outlettype" : [ "" ],
					"id" : "obj-21",
					"comment" : "channel (int)"
				}

			}
, 			{
				"box" : 				{
					"maxclass" : "inlet",
					"numinlets" : 0,
					"numoutlets" : 1,
					"patching_rect" : [ 100.0, 47.0, 25.0, 25.0 ],
					"outlettype" : [ "" ],
					"id" : "obj-22",
					"comment" : "velocity (int)"
				}

			}
, 			{
				"box" : 				{
					"maxclass" : "inlet",
					"numinlets" : 0,
					"numoutlets" : 1,
					"patching_rect" : [ 17.0, 47.0, 25.0, 25.0 ],
					"outlettype" : [ "" ],
					"id" : "obj-23",
					"comment" : "bang, pitch (int)"
				}

			}
, 			{
				"box" : 				{
					"maxclass" : "comment",
					"text" : "bang=flush pitch",
					"numinlets" : 1,
					"fontname" : "Geneva",
					"numoutlets" : 0,
					"patching_rect" : [ 5.0, 21.0, 83.0, 19.0 ],
					"id" : "obj-24",
					"fontsize" : 9.0
				}

			}
, 			{
				"box" : 				{
					"maxclass" : "comment",
					"text" : "/fO",
					"numinlets" : 1,
					"fontname" : "Geneva",
					"numoutlets" : 0,
					"patching_rect" : [ 225.0, 330.0, 25.0, 19.0 ],
					"id" : "obj-25",
					"fontsize" : 9.0
				}

			}
 ],
		"lines" : [ 			{
				"patchline" : 				{
					"source" : [ "obj-1", 1 ],
					"destination" : [ "obj-18", 0 ],
					"hidden" : 0,
					"midpoints" : [  ]
				}

			}
, 			{
				"patchline" : 				{
					"source" : [ "obj-21", 0 ],
					"destination" : [ "obj-18", 0 ],
					"hidden" : 0,
					"midpoints" : [ 164.5, 67.0, 193.5, 67.0 ]
				}

			}
, 			{
				"patchline" : 				{
					"source" : [ "obj-14", 6 ],
					"destination" : [ "obj-1", 1 ],
					"hidden" : 0,
					"midpoints" : [  ]
				}

			}
, 			{
				"patchline" : 				{
					"source" : [ "obj-21", 0 ],
					"destination" : [ "obj-15", 6 ],
					"hidden" : 0,
					"midpoints" : [  ]
				}

			}
, 			{
				"patchline" : 				{
					"source" : [ "obj-22", 0 ],
					"destination" : [ "obj-19", 0 ],
					"hidden" : 0,
					"midpoints" : [ 109.5, 67.0, 146.5, 67.0 ]
				}

			}
, 			{
				"patchline" : 				{
					"source" : [ "obj-2", 1 ],
					"destination" : [ "obj-19", 0 ],
					"hidden" : 0,
					"midpoints" : [  ]
				}

			}
, 			{
				"patchline" : 				{
					"source" : [ "obj-4", 1 ],
					"destination" : [ "obj-1", 0 ],
					"hidden" : 0,
					"midpoints" : [  ]
				}

			}
, 			{
				"patchline" : 				{
					"source" : [ "obj-3", 1 ],
					"destination" : [ "obj-1", 0 ],
					"hidden" : 0,
					"midpoints" : [  ]
				}

			}
, 			{
				"patchline" : 				{
					"source" : [ "obj-13", 0 ],
					"destination" : [ "obj-20", 0 ],
					"hidden" : 0,
					"midpoints" : [  ]
				}

			}
, 			{
				"patchline" : 				{
					"source" : [ "obj-2", 0 ],
					"destination" : [ "obj-20", 0 ],
					"hidden" : 0,
					"midpoints" : [  ]
				}

			}
, 			{
				"patchline" : 				{
					"source" : [ "obj-22", 0 ],
					"destination" : [ "obj-7", 1 ],
					"hidden" : 0,
					"midpoints" : [  ]
				}

			}
, 			{
				"patchline" : 				{
					"source" : [ "obj-5", 1 ],
					"destination" : [ "obj-2", 0 ],
					"hidden" : 0,
					"midpoints" : [  ]
				}

			}
, 			{
				"patchline" : 				{
					"source" : [ "obj-14", 0 ],
					"destination" : [ "obj-5", 1 ],
					"hidden" : 0,
					"midpoints" : [  ]
				}

			}
, 			{
				"patchline" : 				{
					"source" : [ "obj-16", 0 ],
					"destination" : [ "obj-14", 0 ],
					"hidden" : 0,
					"midpoints" : [  ]
				}

			}
, 			{
				"patchline" : 				{
					"source" : [ "obj-3", 0 ],
					"destination" : [ "obj-16", 0 ],
					"hidden" : 0,
					"midpoints" : [ 26.5, 150.0, 86.5, 150.0 ]
				}

			}
, 			{
				"patchline" : 				{
					"source" : [ "obj-6", 0 ],
					"destination" : [ "obj-16", 0 ],
					"hidden" : 0,
					"midpoints" : [ 56.5, 148.0, 86.5, 148.0 ]
				}

			}
, 			{
				"patchline" : 				{
					"source" : [ "obj-15", 0 ],
					"destination" : [ "obj-16", 0 ],
					"hidden" : 0,
					"midpoints" : [  ]
				}

			}
, 			{
				"patchline" : 				{
					"source" : [ "obj-7", 0 ],
					"destination" : [ "obj-15", 0 ],
					"hidden" : 0,
					"midpoints" : [  ]
				}

			}
, 			{
				"patchline" : 				{
					"source" : [ "obj-4", 0 ],
					"destination" : [ "obj-7", 0 ],
					"hidden" : 0,
					"midpoints" : [  ]
				}

			}
, 			{
				"patchline" : 				{
					"source" : [ "obj-17", 2 ],
					"destination" : [ "obj-4", 0 ],
					"hidden" : 0,
					"midpoints" : [  ]
				}

			}
, 			{
				"patchline" : 				{
					"source" : [ "obj-5", 0 ],
					"destination" : [ "obj-13", 0 ],
					"hidden" : 0,
					"midpoints" : [  ]
				}

			}
, 			{
				"patchline" : 				{
					"source" : [ "obj-3", 1 ],
					"destination" : [ "obj-5", 0 ],
					"hidden" : 0,
					"midpoints" : [  ]
				}

			}
, 			{
				"patchline" : 				{
					"source" : [ "obj-4", 1 ],
					"destination" : [ "obj-5", 0 ],
					"hidden" : 0,
					"midpoints" : [  ]
				}

			}
, 			{
				"patchline" : 				{
					"source" : [ "obj-17", 1 ],
					"destination" : [ "obj-6", 0 ],
					"hidden" : 0,
					"midpoints" : [  ]
				}

			}
, 			{
				"patchline" : 				{
					"source" : [ "obj-17", 0 ],
					"destination" : [ "obj-3", 0 ],
					"hidden" : 0,
					"midpoints" : [  ]
				}

			}
, 			{
				"patchline" : 				{
					"source" : [ "obj-23", 0 ],
					"destination" : [ "obj-17", 0 ],
					"hidden" : 0,
					"midpoints" : [  ]
				}

			}
 ]
	}

}
