{
	"patcher" : 	{
		"fileversion" : 1,
		"appversion" : 		{
			"major" : 5,
			"minor" : 1,
			"revision" : 9
		}
,
		"rect" : [ 416.0, 373.0, 144.0, 222.0 ],
		"bglocked" : 0,
		"defrect" : [ 416.0, 373.0, 144.0, 222.0 ],
		"openrect" : [ 0.0, 0.0, 0.0, 0.0 ],
		"openinpresentation" : 0,
		"default_fontsize" : 9.0,
		"default_fontface" : 0,
		"default_fontname" : "Monaco",
		"gridonopen" : 0,
		"gridsize" : [ 10.0, 10.0 ],
		"gridsnaponopen" : 0,
		"toolbarvisible" : 1,
		"boxanimatetime" : 200,
		"imprint" : 0,
		"enablehscroll" : 1,
		"enablevscroll" : 1,
		"devicewidth" : 0.0,
		"boxes" : [ 			{
				"box" : 				{
					"maxclass" : "newobj",
					"text" : "t 0",
					"numinlets" : 1,
					"fontname" : "Monaco",
					"numoutlets" : 1,
					"patching_rect" : [ 76.0, 97.0, 27.0, 19.0 ],
					"outlettype" : [ "int" ],
					"id" : "obj-1",
					"fontsize" : 9.0
				}

			}
, 			{
				"box" : 				{
					"maxclass" : "newobj",
					"text" : "t b 1",
					"numinlets" : 1,
					"fontname" : "Monaco",
					"numoutlets" : 2,
					"patching_rect" : [ 18.0, 97.0, 38.0, 19.0 ],
					"outlettype" : [ "bang", "int" ],
					"id" : "obj-2",
					"fontsize" : 9.0
				}

			}
, 			{
				"box" : 				{
					"maxclass" : "newobj",
					"text" : "sel #1",
					"numinlets" : 2,
					"fontname" : "Monaco",
					"numoutlets" : 2,
					"patching_rect" : [ 76.0, 54.0, 43.0, 19.0 ],
					"outlettype" : [ "bang", "" ],
					"id" : "obj-3",
					"fontsize" : 9.0
				}

			}
, 			{
				"box" : 				{
					"maxclass" : "newobj",
					"text" : "keyup",
					"numinlets" : 0,
					"fontname" : "Monaco",
					"numoutlets" : 4,
					"patching_rect" : [ 76.0, 35.0, 59.5, 19.0 ],
					"outlettype" : [ "int", "int", "int", "int" ],
					"id" : "obj-4",
					"fontsize" : 9.0
				}

			}
, 			{
				"box" : 				{
					"maxclass" : "outlet",
					"numinlets" : 1,
					"numoutlets" : 0,
					"patching_rect" : [ 76.0, 149.0, 25.0, 25.0 ],
					"id" : "obj-5",
					"comment" : "0/1"
				}

			}
, 			{
				"box" : 				{
					"maxclass" : "outlet",
					"numinlets" : 1,
					"numoutlets" : 0,
					"patching_rect" : [ 18.0, 149.0, 25.0, 25.0 ],
					"id" : "obj-6",
					"comment" : "bang"
				}

			}
, 			{
				"box" : 				{
					"maxclass" : "newobj",
					"text" : "sel #1",
					"numinlets" : 2,
					"fontname" : "Monaco",
					"numoutlets" : 2,
					"patching_rect" : [ 18.0, 54.0, 43.0, 19.0 ],
					"outlettype" : [ "bang", "" ],
					"id" : "obj-7",
					"fontsize" : 9.0
				}

			}
, 			{
				"box" : 				{
					"maxclass" : "newobj",
					"text" : "key",
					"numinlets" : 0,
					"fontname" : "Monaco",
					"numoutlets" : 4,
					"patching_rect" : [ 18.0, 35.0, 59.5, 19.0 ],
					"outlettype" : [ "int", "int", "int", "int" ],
					"id" : "obj-8",
					"fontsize" : 9.0
				}

			}
 ],
		"lines" : [ 			{
				"patchline" : 				{
					"source" : [ "obj-2", 1 ],
					"destination" : [ "obj-5", 0 ],
					"hidden" : 0,
					"midpoints" : [  ]
				}

			}
, 			{
				"patchline" : 				{
					"source" : [ "obj-1", 0 ],
					"destination" : [ "obj-5", 0 ],
					"hidden" : 0,
					"midpoints" : [  ]
				}

			}
, 			{
				"patchline" : 				{
					"source" : [ "obj-3", 0 ],
					"destination" : [ "obj-1", 0 ],
					"hidden" : 0,
					"midpoints" : [  ]
				}

			}
, 			{
				"patchline" : 				{
					"source" : [ "obj-4", 0 ],
					"destination" : [ "obj-3", 0 ],
					"hidden" : 0,
					"midpoints" : [  ]
				}

			}
, 			{
				"patchline" : 				{
					"source" : [ "obj-2", 0 ],
					"destination" : [ "obj-6", 0 ],
					"hidden" : 0,
					"midpoints" : [  ]
				}

			}
, 			{
				"patchline" : 				{
					"source" : [ "obj-7", 0 ],
					"destination" : [ "obj-2", 0 ],
					"hidden" : 0,
					"midpoints" : [  ]
				}

			}
, 			{
				"patchline" : 				{
					"source" : [ "obj-8", 0 ],
					"destination" : [ "obj-7", 0 ],
					"hidden" : 0,
					"midpoints" : [  ]
				}

			}
 ]
	}

}
