{
	"patcher" : 	{
		"fileversion" : 1,
		"appversion" : 		{
			"major" : 5,
			"minor" : 1,
			"revision" : 9
		}
,
		"rect" : [ 10.0, 59.0, 195.0, 282.0 ],
		"bglocked" : 0,
		"defrect" : [ 10.0, 59.0, 195.0, 282.0 ],
		"openrect" : [ 0.0, 0.0, 0.0, 0.0 ],
		"openinpresentation" : 0,
		"default_fontsize" : 9.0,
		"default_fontface" : 0,
		"default_fontname" : "Monaco",
		"gridonopen" : 0,
		"gridsize" : [ 10.0, 10.0 ],
		"gridsnaponopen" : 0,
		"toolbarvisible" : 1,
		"boxanimatetime" : 200,
		"imprint" : 0,
		"enablehscroll" : 1,
		"enablevscroll" : 1,
		"devicewidth" : 0.0,
		"boxes" : [ 			{
				"box" : 				{
					"maxclass" : "newobj",
					"text" : "i",
					"numinlets" : 2,
					"fontname" : "Monaco",
					"numoutlets" : 1,
					"patching_rect" : [ 18.0, 197.0, 32.5, 19.0 ],
					"outlettype" : [ "int" ],
					"id" : "obj-1",
					"fontsize" : 9.0
				}

			}
, 			{
				"box" : 				{
					"maxclass" : "newobj",
					"text" : "route 0",
					"numinlets" : 1,
					"fontname" : "Monaco",
					"numoutlets" : 2,
					"patching_rect" : [ 33.0, 75.0, 48.0, 19.0 ],
					"outlettype" : [ "", "" ],
					"id" : "obj-2",
					"fontsize" : 9.0
				}

			}
, 			{
				"box" : 				{
					"maxclass" : "newobj",
					"text" : "t l",
					"numinlets" : 1,
					"fontname" : "Monaco",
					"numoutlets" : 1,
					"patching_rect" : [ 33.0, 111.0, 27.0, 19.0 ],
					"outlettype" : [ "" ],
					"id" : "obj-3",
					"fontsize" : 9.0
				}

			}
, 			{
				"box" : 				{
					"maxclass" : "newobj",
					"text" : "t b l 0",
					"numinlets" : 1,
					"fontname" : "Monaco",
					"numoutlets" : 3,
					"patching_rect" : [ 18.0, 46.0, 48.0, 19.0 ],
					"outlettype" : [ "bang", "", "int" ],
					"id" : "obj-4",
					"fontsize" : 9.0
				}

			}
, 			{
				"box" : 				{
					"maxclass" : "outlet",
					"numinlets" : 1,
					"numoutlets" : 0,
					"patching_rect" : [ 18.0, 221.0, 25.0, 25.0 ],
					"id" : "obj-5",
					"comment" : "num non-zero [int]"
				}

			}
, 			{
				"box" : 				{
					"maxclass" : "inlet",
					"numinlets" : 0,
					"numoutlets" : 1,
					"patching_rect" : [ 18.0, 22.0, 25.0, 25.0 ],
					"outlettype" : [ "" ],
					"id" : "obj-6",
					"comment" : "list"
				}

			}
, 			{
				"box" : 				{
					"maxclass" : "newobj",
					"text" : "counter",
					"numinlets" : 5,
					"fontname" : "Monaco",
					"numoutlets" : 4,
					"patching_rect" : [ 35.0, 178.0, 73.0, 19.0 ],
					"outlettype" : [ "int", "", "", "int" ],
					"id" : "obj-7",
					"fontsize" : 9.0
				}

			}
, 			{
				"box" : 				{
					"maxclass" : "newobj",
					"text" : "zl slice 1",
					"numinlets" : 2,
					"fontname" : "Monaco",
					"numoutlets" : 2,
					"patching_rect" : [ 124.0, 132.0, 65.0, 19.0 ],
					"outlettype" : [ "", "" ],
					"id" : "obj-8",
					"fontsize" : 9.0
				}

			}
, 			{
				"box" : 				{
					"maxclass" : "newobj",
					"text" : "t l b",
					"numinlets" : 1,
					"fontname" : "Monaco",
					"numoutlets" : 2,
					"patching_rect" : [ 124.0, 113.0, 38.0, 19.0 ],
					"outlettype" : [ "", "bang" ],
					"id" : "obj-9",
					"fontsize" : 9.0
				}

			}
, 			{
				"box" : 				{
					"maxclass" : "newobj",
					"text" : "route 0. bang",
					"numinlets" : 1,
					"fontname" : "Monaco",
					"numoutlets" : 3,
					"patching_rect" : [ 66.0, 94.0, 81.0, 19.0 ],
					"outlettype" : [ "", "", "" ],
					"id" : "obj-10",
					"fontsize" : 9.0
				}

			}
 ],
		"lines" : [ 			{
				"patchline" : 				{
					"source" : [ "obj-9", 0 ],
					"destination" : [ "obj-8", 0 ],
					"hidden" : 0,
					"midpoints" : [  ]
				}

			}
, 			{
				"patchline" : 				{
					"source" : [ "obj-10", 2 ],
					"destination" : [ "obj-9", 0 ],
					"hidden" : 0,
					"midpoints" : [  ]
				}

			}
, 			{
				"patchline" : 				{
					"source" : [ "obj-4", 2 ],
					"destination" : [ "obj-7", 3 ],
					"hidden" : 0,
					"midpoints" : [  ]
				}

			}
, 			{
				"patchline" : 				{
					"source" : [ "obj-2", 1 ],
					"destination" : [ "obj-10", 0 ],
					"hidden" : 0,
					"midpoints" : [  ]
				}

			}
, 			{
				"patchline" : 				{
					"source" : [ "obj-7", 0 ],
					"destination" : [ "obj-1", 1 ],
					"hidden" : 0,
					"midpoints" : [  ]
				}

			}
, 			{
				"patchline" : 				{
					"source" : [ "obj-9", 1 ],
					"destination" : [ "obj-7", 0 ],
					"hidden" : 0,
					"midpoints" : [  ]
				}

			}
, 			{
				"patchline" : 				{
					"source" : [ "obj-2", 0 ],
					"destination" : [ "obj-3", 0 ],
					"hidden" : 0,
					"midpoints" : [  ]
				}

			}
, 			{
				"patchline" : 				{
					"source" : [ "obj-8", 1 ],
					"destination" : [ "obj-2", 0 ],
					"hidden" : 0,
					"midpoints" : [ 179.5, 153.0, 28.0, 153.0, 28.0, 73.0, 42.5, 73.0 ]
				}

			}
, 			{
				"patchline" : 				{
					"source" : [ "obj-4", 1 ],
					"destination" : [ "obj-2", 0 ],
					"hidden" : 0,
					"midpoints" : [  ]
				}

			}
, 			{
				"patchline" : 				{
					"source" : [ "obj-3", 0 ],
					"destination" : [ "obj-2", 0 ],
					"hidden" : 0,
					"midpoints" : [ 42.5, 130.0, 30.0, 130.0, 30.0, 73.0, 42.5, 73.0 ]
				}

			}
, 			{
				"patchline" : 				{
					"source" : [ "obj-1", 0 ],
					"destination" : [ "obj-5", 0 ],
					"hidden" : 0,
					"midpoints" : [  ]
				}

			}
, 			{
				"patchline" : 				{
					"source" : [ "obj-4", 0 ],
					"destination" : [ "obj-1", 0 ],
					"hidden" : 0,
					"midpoints" : [  ]
				}

			}
, 			{
				"patchline" : 				{
					"source" : [ "obj-6", 0 ],
					"destination" : [ "obj-4", 0 ],
					"hidden" : 0,
					"midpoints" : [  ]
				}

			}
 ]
	}

}
