{
	"patcher" : 	{
		"fileversion" : 1,
		"appversion" : 		{
			"major" : 5,
			"minor" : 1,
			"revision" : 9
		}
,
		"rect" : [ 177.0, 44.0, 408.0, 330.0 ],
		"bglocked" : 0,
		"defrect" : [ 177.0, 44.0, 408.0, 330.0 ],
		"openrect" : [ 0.0, 0.0, 0.0, 0.0 ],
		"openinpresentation" : 0,
		"default_fontsize" : 9.0,
		"default_fontface" : 0,
		"default_fontname" : "Monaco",
		"gridonopen" : 0,
		"gridsize" : [ 10.0, 10.0 ],
		"gridsnaponopen" : 0,
		"toolbarvisible" : 1,
		"boxanimatetime" : 200,
		"imprint" : 0,
		"enablehscroll" : 1,
		"enablevscroll" : 1,
		"devicewidth" : 0.0,
		"boxes" : [ 			{
				"box" : 				{
					"maxclass" : "newobj",
					"text" : "loadmess 0.5",
					"numinlets" : 1,
					"fontname" : "Monaco",
					"numoutlets" : 1,
					"patching_rect" : [ 70.0, 70.0, 75.0, 19.0 ],
					"outlettype" : [ "" ],
					"id" : "obj-1",
					"fontsize" : 9.0,
					"hidden" : 1
				}

			}
, 			{
				"box" : 				{
					"maxclass" : "flonum",
					"bgcolor" : [ 0.866667, 0.866667, 0.866667, 1.0 ],
					"numinlets" : 1,
					"fontname" : "Monaco",
					"numoutlets" : 2,
					"patching_rect" : [ 70.0, 90.0, 35.0, 19.0 ],
					"outlettype" : [ "float", "bang" ],
					"id" : "obj-2",
					"fontsize" : 9.0,
					"htextcolor" : [ 0.870588, 0.870588, 0.870588, 1.0 ],
					"triscale" : 0.9
				}

			}
, 			{
				"box" : 				{
					"maxclass" : "comment",
					"text" : "set direction (float). negative counts backwards",
					"numinlets" : 1,
					"fontname" : "Monaco",
					"numoutlets" : 0,
					"patching_rect" : [ 110.0, 90.0, 270.0, 19.0 ],
					"id" : "obj-3",
					"fontsize" : 9.0
				}

			}
, 			{
				"box" : 				{
					"maxclass" : "flonum",
					"bgcolor" : [ 0.866667, 0.866667, 0.866667, 1.0 ],
					"numinlets" : 1,
					"fontname" : "Monaco",
					"numoutlets" : 2,
					"patching_rect" : [ 100.0, 110.0, 35.0, 19.0 ],
					"outlettype" : [ "float", "bang" ],
					"id" : "obj-4",
					"fontsize" : 9.0,
					"htextcolor" : [ 0.870588, 0.870588, 0.870588, 1.0 ],
					"triscale" : 0.9
				}

			}
, 			{
				"box" : 				{
					"maxclass" : "comment",
					"text" : "reset counter to number on next bang",
					"numinlets" : 1,
					"fontname" : "Monaco",
					"numoutlets" : 0,
					"patching_rect" : [ 140.0, 110.0, 205.0, 19.0 ],
					"id" : "obj-5",
					"fontsize" : 9.0
				}

			}
, 			{
				"box" : 				{
					"maxclass" : "flonum",
					"bgcolor" : [ 0.866667, 0.866667, 0.866667, 1.0 ],
					"numinlets" : 1,
					"fontname" : "Monaco",
					"numoutlets" : 2,
					"patching_rect" : [ 120.0, 130.0, 35.0, 19.0 ],
					"outlettype" : [ "float", "bang" ],
					"id" : "obj-6",
					"fontsize" : 9.0,
					"htextcolor" : [ 0.870588, 0.870588, 0.870588, 1.0 ],
					"triscale" : 0.9
				}

			}
, 			{
				"box" : 				{
					"maxclass" : "comment",
					"text" : "reset counter to number immediately",
					"numinlets" : 1,
					"fontname" : "Monaco",
					"numoutlets" : 0,
					"patching_rect" : [ 160.0, 130.0, 200.0, 19.0 ],
					"id" : "obj-7",
					"fontsize" : 9.0
				}

			}
, 			{
				"box" : 				{
					"maxclass" : "comment",
					"text" : "3. maximum",
					"numinlets" : 1,
					"fontname" : "Monaco",
					"numoutlets" : 0,
					"patching_rect" : [ 200.0, 270.0, 65.0, 19.0 ],
					"id" : "obj-8",
					"fontsize" : 9.0
				}

			}
, 			{
				"box" : 				{
					"maxclass" : "flonum",
					"bgcolor" : [ 0.866667, 0.866667, 0.866667, 1.0 ],
					"numinlets" : 1,
					"fontname" : "Monaco",
					"numoutlets" : 2,
					"patching_rect" : [ 160.0, 170.0, 35.0, 19.0 ],
					"outlettype" : [ "float", "bang" ],
					"id" : "obj-9",
					"fontsize" : 9.0,
					"htextcolor" : [ 0.870588, 0.870588, 0.870588, 1.0 ],
					"triscale" : 0.9
				}

			}
, 			{
				"box" : 				{
					"maxclass" : "flonum",
					"bgcolor" : [ 0.866667, 0.866667, 0.866667, 1.0 ],
					"numinlets" : 1,
					"fontname" : "Monaco",
					"numoutlets" : 2,
					"patching_rect" : [ 140.0, 150.0, 35.0, 19.0 ],
					"outlettype" : [ "float", "bang" ],
					"id" : "obj-10",
					"fontsize" : 9.0,
					"htextcolor" : [ 0.870588, 0.870588, 0.870588, 1.0 ],
					"triscale" : 0.9
				}

			}
, 			{
				"box" : 				{
					"maxclass" : "button",
					"numinlets" : 1,
					"numoutlets" : 1,
					"patching_rect" : [ 150.0, 240.0, 20.0, 20.0 ],
					"outlettype" : [ "bang" ],
					"id" : "obj-11"
				}

			}
, 			{
				"box" : 				{
					"maxclass" : "button",
					"numinlets" : 1,
					"numoutlets" : 1,
					"patching_rect" : [ 110.0, 240.0, 20.0, 20.0 ],
					"outlettype" : [ "bang" ],
					"id" : "obj-12"
				}

			}
, 			{
				"box" : 				{
					"maxclass" : "flonum",
					"bgcolor" : [ 0.866667, 0.866667, 0.866667, 1.0 ],
					"numinlets" : 1,
					"fontname" : "Monaco",
					"numoutlets" : 2,
					"patching_rect" : [ 50.0, 290.0, 43.0, 19.0 ],
					"outlettype" : [ "float", "bang" ],
					"id" : "obj-13",
					"fontsize" : 9.0,
					"htextcolor" : [ 0.870588, 0.870588, 0.870588, 1.0 ],
					"triscale" : 0.9
				}

			}
, 			{
				"box" : 				{
					"maxclass" : "comment",
					"text" : "2. minimum",
					"numinlets" : 1,
					"fontname" : "Monaco",
					"numoutlets" : 0,
					"patching_rect" : [ 200.0, 250.0, 65.0, 19.0 ],
					"id" : "obj-14",
					"fontsize" : 9.0
				}

			}
, 			{
				"box" : 				{
					"maxclass" : "button",
					"numinlets" : 1,
					"numoutlets" : 1,
					"patching_rect" : [ 60.0, 240.0, 20.0, 20.0 ],
					"outlettype" : [ "bang" ],
					"id" : "obj-15"
				}

			}
, 			{
				"box" : 				{
					"maxclass" : "comment",
					"text" : "1. rate",
					"numinlets" : 1,
					"fontname" : "Monaco",
					"numoutlets" : 0,
					"patching_rect" : [ 200.0, 230.0, 48.0, 19.0 ],
					"id" : "obj-16",
					"fontsize" : 9.0
				}

			}
, 			{
				"box" : 				{
					"maxclass" : "comment",
					"text" : "optional arguments:",
					"numinlets" : 1,
					"fontname" : "Monaco",
					"numoutlets" : 0,
					"patching_rect" : [ 190.0, 210.0, 113.0, 19.0 ],
					"id" : "obj-17",
					"fontsize" : 9.0
				}

			}
, 			{
				"box" : 				{
					"maxclass" : "comment",
					"text" : "maximum",
					"numinlets" : 1,
					"fontname" : "Monaco",
					"numoutlets" : 0,
					"patching_rect" : [ 200.0, 170.0, 48.0, 19.0 ],
					"id" : "obj-18",
					"fontsize" : 9.0
				}

			}
, 			{
				"box" : 				{
					"maxclass" : "button",
					"numinlets" : 1,
					"numoutlets" : 1,
					"patching_rect" : [ 50.0, 160.0, 20.0, 20.0 ],
					"outlettype" : [ "bang" ],
					"id" : "obj-19"
				}

			}
, 			{
				"box" : 				{
					"maxclass" : "comment",
					"text" : "f0.float_counter",
					"numinlets" : 1,
					"fontname" : "Monaco",
					"numoutlets" : 0,
					"patching_rect" : [ 80.0, 20.0, 183.0, 31.0 ],
					"id" : "obj-20",
					"fontsize" : 18.0
				}

			}
, 			{
				"box" : 				{
					"maxclass" : "newobj",
					"text" : "f0.float_counter 0.5 0 5",
					"numinlets" : 6,
					"fontname" : "Monaco",
					"numoutlets" : 3,
					"patching_rect" : [ 50.0, 210.0, 140.0, 19.0 ],
					"outlettype" : [ "float", "bang", "bang" ],
					"id" : "obj-23",
					"fontsize" : 9.0
				}

			}
, 			{
				"box" : 				{
					"maxclass" : "comment",
					"text" : "counter with float direction/rate",
					"numinlets" : 1,
					"fontname" : "Monaco",
					"numoutlets" : 0,
					"patching_rect" : [ 70.0, 50.0, 189.0, 19.0 ],
					"id" : "obj-21",
					"fontsize" : 9.0
				}

			}
, 			{
				"box" : 				{
					"maxclass" : "comment",
					"text" : "/fO",
					"numinlets" : 1,
					"fontname" : "Monaco",
					"numoutlets" : 0,
					"patching_rect" : [ 370.0, 300.0, 27.0, 19.0 ],
					"id" : "obj-24",
					"fontsize" : 9.0
				}

			}
, 			{
				"box" : 				{
					"maxclass" : "comment",
					"text" : "minimum",
					"numinlets" : 1,
					"fontname" : "Monaco",
					"numoutlets" : 0,
					"patching_rect" : [ 180.0, 150.0, 48.0, 19.0 ],
					"id" : "obj-25",
					"fontsize" : 9.0
				}

			}
, 			{
				"box" : 				{
					"maxclass" : "fpic",
					"numinlets" : 1,
					"numoutlets" : 0,
					"patching_rect" : [ 260.0, 170.0, 137.0, 151.0 ],
					"pic" : "f0logo.png",
					"id" : "obj-26"
				}

			}
 ],
		"lines" : [ 			{
				"patchline" : 				{
					"source" : [ "obj-23", 2 ],
					"destination" : [ "obj-11", 0 ],
					"hidden" : 0,
					"midpoints" : [  ]
				}

			}
, 			{
				"patchline" : 				{
					"source" : [ "obj-9", 0 ],
					"destination" : [ "obj-23", 5 ],
					"hidden" : 0,
					"midpoints" : [  ]
				}

			}
, 			{
				"patchline" : 				{
					"source" : [ "obj-10", 0 ],
					"destination" : [ "obj-23", 4 ],
					"hidden" : 0,
					"midpoints" : [  ]
				}

			}
, 			{
				"patchline" : 				{
					"source" : [ "obj-6", 0 ],
					"destination" : [ "obj-23", 3 ],
					"hidden" : 0,
					"midpoints" : [  ]
				}

			}
, 			{
				"patchline" : 				{
					"source" : [ "obj-23", 1 ],
					"destination" : [ "obj-12", 0 ],
					"hidden" : 0,
					"midpoints" : [  ]
				}

			}
, 			{
				"patchline" : 				{
					"source" : [ "obj-4", 0 ],
					"destination" : [ "obj-23", 2 ],
					"hidden" : 0,
					"midpoints" : [  ]
				}

			}
, 			{
				"patchline" : 				{
					"source" : [ "obj-2", 0 ],
					"destination" : [ "obj-23", 1 ],
					"hidden" : 0,
					"midpoints" : [  ]
				}

			}
, 			{
				"patchline" : 				{
					"source" : [ "obj-1", 0 ],
					"destination" : [ "obj-2", 0 ],
					"hidden" : 1,
					"midpoints" : [  ]
				}

			}
, 			{
				"patchline" : 				{
					"source" : [ "obj-23", 0 ],
					"destination" : [ "obj-13", 0 ],
					"hidden" : 0,
					"midpoints" : [  ]
				}

			}
, 			{
				"patchline" : 				{
					"source" : [ "obj-19", 0 ],
					"destination" : [ "obj-23", 0 ],
					"hidden" : 0,
					"midpoints" : [  ]
				}

			}
, 			{
				"patchline" : 				{
					"source" : [ "obj-23", 0 ],
					"destination" : [ "obj-15", 0 ],
					"hidden" : 0,
					"midpoints" : [  ]
				}

			}
 ]
	}

}
