{
	"patcher" : 	{
		"fileversion" : 1,
		"appversion" : 		{
			"major" : 5,
			"minor" : 1,
			"revision" : 9
		}
,
		"rect" : [ 256.0, 44.0, 298.0, 277.0 ],
		"bglocked" : 0,
		"defrect" : [ 256.0, 44.0, 298.0, 277.0 ],
		"openrect" : [ 0.0, 0.0, 0.0, 0.0 ],
		"openinpresentation" : 0,
		"default_fontsize" : 9.0,
		"default_fontface" : 0,
		"default_fontname" : "Monaco",
		"gridonopen" : 0,
		"gridsize" : [ 10.0, 10.0 ],
		"gridsnaponopen" : 0,
		"toolbarvisible" : 1,
		"boxanimatetime" : 200,
		"imprint" : 0,
		"enablehscroll" : 1,
		"enablevscroll" : 1,
		"devicewidth" : 0.0,
		"boxes" : [ 			{
				"box" : 				{
					"maxclass" : "message",
					"text" : "0 1 2",
					"numinlets" : 2,
					"fontname" : "Monaco",
					"numoutlets" : 1,
					"patching_rect" : [ 50.0, 150.0, 38.0, 17.0 ],
					"outlettype" : [ "" ],
					"id" : "obj-1",
					"fontsize" : 9.0
				}

			}
, 			{
				"box" : 				{
					"maxclass" : "comment",
					"text" : "list to match",
					"numinlets" : 1,
					"fontname" : "Monaco",
					"numoutlets" : 0,
					"patching_rect" : [ 130.0, 220.0, 81.0, 19.0 ],
					"id" : "obj-2",
					"fontsize" : 9.0
				}

			}
, 			{
				"box" : 				{
					"maxclass" : "comment",
					"text" : "optional argument:",
					"numinlets" : 1,
					"fontname" : "Monaco",
					"numoutlets" : 0,
					"patching_rect" : [ 120.0, 200.0, 108.0, 19.0 ],
					"id" : "obj-3",
					"fontsize" : 9.0
				}

			}
, 			{
				"box" : 				{
					"maxclass" : "message",
					"text" : "asdf 3 4",
					"numinlets" : 2,
					"fontname" : "Monaco",
					"numoutlets" : 1,
					"patching_rect" : [ 130.0, 140.0, 54.0, 17.0 ],
					"outlettype" : [ "" ],
					"id" : "obj-4",
					"fontsize" : 9.0
				}

			}
, 			{
				"box" : 				{
					"maxclass" : "message",
					"text" : "0.4 0.5 0.6",
					"numinlets" : 2,
					"fontname" : "Monaco",
					"numoutlets" : 1,
					"patching_rect" : [ 50.0, 130.0, 70.0, 17.0 ],
					"outlettype" : [ "" ],
					"id" : "obj-5",
					"fontsize" : 9.0
				}

			}
, 			{
				"box" : 				{
					"maxclass" : "message",
					"text" : "asdf 3 4",
					"numinlets" : 2,
					"fontname" : "Monaco",
					"numoutlets" : 1,
					"patching_rect" : [ 50.0, 110.0, 54.0, 17.0 ],
					"outlettype" : [ "" ],
					"id" : "obj-6",
					"fontsize" : 9.0
				}

			}
, 			{
				"box" : 				{
					"maxclass" : "button",
					"numinlets" : 1,
					"numoutlets" : 1,
					"patching_rect" : [ 20.0, 230.0, 20.0, 20.0 ],
					"outlettype" : [ "bang" ],
					"id" : "obj-7"
				}

			}
, 			{
				"box" : 				{
					"maxclass" : "number",
					"bgcolor" : [ 0.866667, 0.866667, 0.866667, 1.0 ],
					"numinlets" : 1,
					"fontname" : "Monaco",
					"numoutlets" : 2,
					"patching_rect" : [ 40.0, 230.0, 35.0, 19.0 ],
					"outlettype" : [ "int", "bang" ],
					"id" : "obj-8",
					"fontsize" : 9.0,
					"htextcolor" : [ 0.870588, 0.870588, 0.870588, 1.0 ],
					"triscale" : 0.9
				}

			}
, 			{
				"box" : 				{
					"maxclass" : "message",
					"text" : "0.4 0.5 0.6",
					"numinlets" : 2,
					"fontname" : "Monaco",
					"numoutlets" : 1,
					"patching_rect" : [ 130.0, 160.0, 70.0, 17.0 ],
					"outlettype" : [ "" ],
					"id" : "obj-9",
					"fontsize" : 9.0
				}

			}
, 			{
				"box" : 				{
					"maxclass" : "message",
					"text" : "whatever",
					"numinlets" : 2,
					"fontname" : "Monaco",
					"numoutlets" : 1,
					"patching_rect" : [ 40.0, 90.0, 54.0, 17.0 ],
					"outlettype" : [ "" ],
					"id" : "obj-10",
					"fontsize" : 9.0
				}

			}
, 			{
				"box" : 				{
					"maxclass" : "comment",
					"text" : "f0.l==",
					"numinlets" : 1,
					"fontname" : "Monaco",
					"numoutlets" : 0,
					"patching_rect" : [ 100.0, 20.0, 75.0, 31.0 ],
					"id" : "obj-11",
					"fontsize" : 18.0
				}

			}
, 			{
				"box" : 				{
					"maxclass" : "comment",
					"text" : "outputs 1 if two lists match",
					"numinlets" : 1,
					"fontname" : "Monaco",
					"numoutlets" : 0,
					"patching_rect" : [ 70.0, 50.0, 162.0, 19.0 ],
					"id" : "obj-12",
					"fontsize" : 9.0
				}

			}
, 			{
				"box" : 				{
					"maxclass" : "newobj",
					"text" : "f0.l== 0 1 2",
					"numinlets" : 2,
					"fontname" : "Monaco",
					"numoutlets" : 1,
					"patching_rect" : [ 40.0, 200.0, 75.0, 19.0 ],
					"outlettype" : [ "int" ],
					"id" : "obj-14",
					"fontsize" : 9.0
				}

			}
, 			{
				"box" : 				{
					"maxclass" : "comment",
					"text" : "/fO",
					"numinlets" : 1,
					"fontname" : "Monaco",
					"numoutlets" : 0,
					"patching_rect" : [ 260.0, 250.0, 27.0, 19.0 ],
					"id" : "obj-15",
					"fontsize" : 9.0
				}

			}
, 			{
				"box" : 				{
					"maxclass" : "fpic",
					"numinlets" : 1,
					"numoutlets" : 0,
					"patching_rect" : [ 150.0, 120.0, 137.0, 151.0 ],
					"pic" : "f0logo.png",
					"id" : "obj-16"
				}

			}
 ],
		"lines" : [ 			{
				"patchline" : 				{
					"source" : [ "obj-4", 0 ],
					"destination" : [ "obj-14", 1 ],
					"hidden" : 0,
					"midpoints" : [  ]
				}

			}
, 			{
				"patchline" : 				{
					"source" : [ "obj-9", 0 ],
					"destination" : [ "obj-14", 1 ],
					"hidden" : 0,
					"midpoints" : [  ]
				}

			}
, 			{
				"patchline" : 				{
					"source" : [ "obj-14", 0 ],
					"destination" : [ "obj-8", 0 ],
					"hidden" : 0,
					"midpoints" : [  ]
				}

			}
, 			{
				"patchline" : 				{
					"source" : [ "obj-1", 0 ],
					"destination" : [ "obj-14", 0 ],
					"hidden" : 0,
					"midpoints" : [  ]
				}

			}
, 			{
				"patchline" : 				{
					"source" : [ "obj-10", 0 ],
					"destination" : [ "obj-14", 0 ],
					"hidden" : 0,
					"midpoints" : [  ]
				}

			}
, 			{
				"patchline" : 				{
					"source" : [ "obj-6", 0 ],
					"destination" : [ "obj-14", 0 ],
					"hidden" : 0,
					"midpoints" : [  ]
				}

			}
, 			{
				"patchline" : 				{
					"source" : [ "obj-5", 0 ],
					"destination" : [ "obj-14", 0 ],
					"hidden" : 0,
					"midpoints" : [  ]
				}

			}
, 			{
				"patchline" : 				{
					"source" : [ "obj-14", 0 ],
					"destination" : [ "obj-7", 0 ],
					"hidden" : 0,
					"midpoints" : [  ]
				}

			}
 ]
	}

}
