{
	"patcher" : 	{
		"fileversion" : 1,
		"appversion" : 		{
			"major" : 5,
			"minor" : 1,
			"revision" : 9
		}
,
		"rect" : [ 256.0, 44.0, 371.0, 295.0 ],
		"bglocked" : 0,
		"defrect" : [ 256.0, 44.0, 371.0, 295.0 ],
		"openrect" : [ 0.0, 0.0, 0.0, 0.0 ],
		"openinpresentation" : 0,
		"default_fontsize" : 9.0,
		"default_fontface" : 0,
		"default_fontname" : "Monaco",
		"gridonopen" : 0,
		"gridsize" : [ 10.0, 10.0 ],
		"gridsnaponopen" : 0,
		"toolbarvisible" : 1,
		"boxanimatetime" : 200,
		"imprint" : 0,
		"enablehscroll" : 1,
		"enablevscroll" : 1,
		"devicewidth" : 0.0,
		"boxes" : [ 			{
				"box" : 				{
					"maxclass" : "comment",
					"text" : "symbols are non-zero",
					"numinlets" : 1,
					"fontname" : "Monaco",
					"numoutlets" : 0,
					"patching_rect" : [ 200.0, 130.0, 119.0, 19.0 ],
					"id" : "obj-1",
					"fontsize" : 9.0
				}

			}
, 			{
				"box" : 				{
					"maxclass" : "message",
					"text" : "0 0 0. 0. 0 0",
					"numinlets" : 2,
					"fontname" : "Monaco",
					"numoutlets" : 1,
					"patching_rect" : [ 140.0, 150.0, 81.0, 17.0 ],
					"outlettype" : [ "" ],
					"id" : "obj-2",
					"fontsize" : 9.0
				}

			}
, 			{
				"box" : 				{
					"maxclass" : "message",
					"text" : "0 ddd 0 0 0.1",
					"numinlets" : 2,
					"fontname" : "Monaco",
					"numoutlets" : 1,
					"patching_rect" : [ 120.0, 130.0, 81.0, 17.0 ],
					"outlettype" : [ "" ],
					"id" : "obj-3",
					"fontsize" : 9.0
				}

			}
, 			{
				"box" : 				{
					"maxclass" : "button",
					"numinlets" : 1,
					"numoutlets" : 1,
					"patching_rect" : [ 60.0, 220.0, 20.0, 20.0 ],
					"outlettype" : [ "bang" ],
					"id" : "obj-4"
				}

			}
, 			{
				"box" : 				{
					"maxclass" : "number",
					"bgcolor" : [ 0.866667, 0.866667, 0.866667, 1.0 ],
					"numinlets" : 1,
					"fontname" : "Monaco",
					"numoutlets" : 2,
					"patching_rect" : [ 80.0, 220.0, 35.0, 19.0 ],
					"outlettype" : [ "int", "bang" ],
					"id" : "obj-5",
					"fontsize" : 9.0,
					"htextcolor" : [ 0.870588, 0.870588, 0.870588, 1.0 ],
					"triscale" : 0.9
				}

			}
, 			{
				"box" : 				{
					"maxclass" : "message",
					"text" : "0 0 0 0 0",
					"numinlets" : 2,
					"fontname" : "Monaco",
					"numoutlets" : 1,
					"patching_rect" : [ 100.0, 110.0, 59.0, 17.0 ],
					"outlettype" : [ "" ],
					"id" : "obj-6",
					"fontsize" : 9.0
				}

			}
, 			{
				"box" : 				{
					"maxclass" : "comment",
					"text" : "f0.list_all_zero",
					"numinlets" : 1,
					"fontname" : "Monaco",
					"numoutlets" : 0,
					"patching_rect" : [ 70.0, 20.0, 183.0, 31.0 ],
					"id" : "obj-7",
					"fontsize" : 18.0
				}

			}
, 			{
				"box" : 				{
					"maxclass" : "comment",
					"text" : "outputs 1 if all numbers in a list are 0",
					"numinlets" : 1,
					"fontname" : "Monaco",
					"numoutlets" : 0,
					"patching_rect" : [ 60.0, 50.0, 227.0, 19.0 ],
					"id" : "obj-8",
					"fontsize" : 9.0
				}

			}
, 			{
				"box" : 				{
					"maxclass" : "newobj",
					"text" : "f0.list_all_zero",
					"numinlets" : 1,
					"fontname" : "Monaco",
					"numoutlets" : 1,
					"patching_rect" : [ 80.0, 190.0, 97.0, 19.0 ],
					"outlettype" : [ "int" ],
					"id" : "obj-10",
					"fontsize" : 9.0
				}

			}
, 			{
				"box" : 				{
					"maxclass" : "comment",
					"text" : "/fO",
					"numinlets" : 1,
					"fontname" : "Monaco",
					"numoutlets" : 0,
					"patching_rect" : [ 340.0, 270.0, 27.0, 19.0 ],
					"id" : "obj-11",
					"fontsize" : 9.0
				}

			}
, 			{
				"box" : 				{
					"maxclass" : "fpic",
					"numinlets" : 1,
					"numoutlets" : 0,
					"patching_rect" : [ 230.0, 140.0, 137.0, 151.0 ],
					"pic" : "f0logo.png",
					"id" : "obj-12"
				}

			}
, 			{
				"box" : 				{
					"maxclass" : "message",
					"text" : "0 0 2 3 0 0",
					"numinlets" : 2,
					"fontname" : "Monaco",
					"numoutlets" : 1,
					"patching_rect" : [ 80.0, 90.0, 70.0, 17.0 ],
					"outlettype" : [ "" ],
					"id" : "obj-13",
					"fontsize" : 9.0
				}

			}
 ],
		"lines" : [ 			{
				"patchline" : 				{
					"source" : [ "obj-10", 0 ],
					"destination" : [ "obj-5", 0 ],
					"hidden" : 0,
					"midpoints" : [  ]
				}

			}
, 			{
				"patchline" : 				{
					"source" : [ "obj-2", 0 ],
					"destination" : [ "obj-10", 0 ],
					"hidden" : 0,
					"midpoints" : [  ]
				}

			}
, 			{
				"patchline" : 				{
					"source" : [ "obj-3", 0 ],
					"destination" : [ "obj-10", 0 ],
					"hidden" : 0,
					"midpoints" : [  ]
				}

			}
, 			{
				"patchline" : 				{
					"source" : [ "obj-13", 0 ],
					"destination" : [ "obj-10", 0 ],
					"hidden" : 0,
					"midpoints" : [  ]
				}

			}
, 			{
				"patchline" : 				{
					"source" : [ "obj-6", 0 ],
					"destination" : [ "obj-10", 0 ],
					"hidden" : 0,
					"midpoints" : [  ]
				}

			}
, 			{
				"patchline" : 				{
					"source" : [ "obj-10", 0 ],
					"destination" : [ "obj-4", 0 ],
					"hidden" : 0,
					"midpoints" : [  ]
				}

			}
 ]
	}

}
