{
	"patcher" : 	{
		"fileversion" : 1,
		"appversion" : 		{
			"major" : 5,
			"minor" : 1,
			"revision" : 9
		}
,
		"rect" : [ 256.0, 44.0, 449.0, 336.0 ],
		"bglocked" : 0,
		"defrect" : [ 256.0, 44.0, 449.0, 336.0 ],
		"openrect" : [ 0.0, 0.0, 0.0, 0.0 ],
		"openinpresentation" : 0,
		"default_fontsize" : 9.0,
		"default_fontface" : 0,
		"default_fontname" : "Monaco",
		"gridonopen" : 0,
		"gridsize" : [ 10.0, 10.0 ],
		"gridsnaponopen" : 0,
		"toolbarvisible" : 1,
		"boxanimatetime" : 200,
		"imprint" : 0,
		"enablehscroll" : 1,
		"enablevscroll" : 1,
		"devicewidth" : 0.0,
		"boxes" : [ 			{
				"box" : 				{
					"maxclass" : "button",
					"numinlets" : 1,
					"numoutlets" : 1,
					"patching_rect" : [ 200.0, 240.0, 20.0, 20.0 ],
					"outlettype" : [ "bang" ],
					"id" : "obj-1"
				}

			}
, 			{
				"box" : 				{
					"maxclass" : "message",
					"text" : "0.5 0 200",
					"numinlets" : 2,
					"fontname" : "Monaco",
					"numoutlets" : 1,
					"patching_rect" : [ 160.0, 150.0, 59.0, 17.0 ],
					"outlettype" : [ "" ],
					"id" : "obj-2",
					"fontsize" : 9.0
				}

			}
, 			{
				"box" : 				{
					"maxclass" : "message",
					"text" : "-0.5 1000 500",
					"numinlets" : 2,
					"fontname" : "Monaco",
					"numoutlets" : 1,
					"patching_rect" : [ 150.0, 130.0, 81.0, 17.0 ],
					"outlettype" : [ "" ],
					"id" : "obj-3",
					"fontsize" : 9.0
				}

			}
, 			{
				"box" : 				{
					"maxclass" : "message",
					"text" : "1 500 1000",
					"numinlets" : 2,
					"fontname" : "Monaco",
					"numoutlets" : 1,
					"patching_rect" : [ 140.0, 110.0, 65.0, 17.0 ],
					"outlettype" : [ "" ],
					"id" : "obj-4",
					"fontsize" : 9.0
				}

			}
, 			{
				"box" : 				{
					"maxclass" : "message",
					"text" : "stop",
					"numinlets" : 2,
					"fontname" : "Monaco",
					"numoutlets" : 1,
					"patching_rect" : [ 60.0, 230.0, 32.5, 17.0 ],
					"outlettype" : [ "" ],
					"id" : "obj-5",
					"fontsize" : 9.0
				}

			}
, 			{
				"box" : 				{
					"maxclass" : "message",
					"text" : "startwindow",
					"numinlets" : 2,
					"fontname" : "Monaco",
					"numoutlets" : 1,
					"patching_rect" : [ 60.0, 210.0, 70.0, 17.0 ],
					"outlettype" : [ "" ],
					"id" : "obj-6",
					"fontsize" : 9.0
				}

			}
, 			{
				"box" : 				{
					"maxclass" : "newobj",
					"text" : "dac~",
					"numinlets" : 2,
					"fontname" : "Monaco",
					"numoutlets" : 0,
					"patching_rect" : [ 140.0, 270.0, 32.5, 19.0 ],
					"id" : "obj-7",
					"fontsize" : 9.0
				}

			}
, 			{
				"box" : 				{
					"maxclass" : "comment",
					"text" : "buffer name",
					"numinlets" : 1,
					"fontname" : "Monaco",
					"numoutlets" : 0,
					"patching_rect" : [ 240.0, 220.0, 70.0, 19.0 ],
					"id" : "obj-8",
					"fontsize" : 9.0
				}

			}
, 			{
				"box" : 				{
					"maxclass" : "comment",
					"text" : "req argument:",
					"numinlets" : 1,
					"fontname" : "Monaco",
					"numoutlets" : 0,
					"patching_rect" : [ 230.0, 200.0, 81.0, 19.0 ],
					"id" : "obj-9",
					"fontsize" : 9.0
				}

			}
, 			{
				"box" : 				{
					"maxclass" : "comment",
					"text" : "f0.play~",
					"numinlets" : 1,
					"fontname" : "Monaco",
					"numoutlets" : 0,
					"patching_rect" : [ 150.0, 20.0, 97.0, 31.0 ],
					"id" : "obj-10",
					"fontsize" : 18.0
				}

			}
, 			{
				"box" : 				{
					"maxclass" : "comment",
					"text" : "one shot sample player. wrapper for the standard play~ but it calculate rate and duration for the line~",
					"linecount" : 2,
					"numinlets" : 1,
					"fontname" : "Monaco",
					"numoutlets" : 0,
					"patching_rect" : [ 70.0, 50.0, 302.0, 31.0 ],
					"id" : "obj-11",
					"fontsize" : 9.0
				}

			}
, 			{
				"box" : 				{
					"maxclass" : "newobj",
					"text" : "f0.play~ asdf",
					"numinlets" : 1,
					"fontname" : "Monaco",
					"numoutlets" : 2,
					"patching_rect" : [ 140.0, 200.0, 81.0, 19.0 ],
					"outlettype" : [ "signal", "bang" ],
					"id" : "obj-13",
					"fontsize" : 9.0
				}

			}
, 			{
				"box" : 				{
					"maxclass" : "comment",
					"text" : "/fO",
					"numinlets" : 1,
					"fontname" : "Monaco",
					"numoutlets" : 0,
					"patching_rect" : [ 410.0, 310.0, 27.0, 19.0 ],
					"id" : "obj-14",
					"fontsize" : 9.0
				}

			}
, 			{
				"box" : 				{
					"maxclass" : "fpic",
					"numinlets" : 1,
					"numoutlets" : 0,
					"patching_rect" : [ 300.0, 180.0, 137.0, 151.0 ],
					"pic" : "f0logo.png",
					"id" : "obj-15"
				}

			}
, 			{
				"box" : 				{
					"maxclass" : "newobj",
					"text" : "buffer~ asdf",
					"numinlets" : 1,
					"fontname" : "Monaco",
					"numoutlets" : 2,
					"patching_rect" : [ 20.0, 140.0, 75.0, 19.0 ],
					"outlettype" : [ "float", "bang" ],
					"id" : "obj-16",
					"fontsize" : 9.0
				}

			}
, 			{
				"box" : 				{
					"maxclass" : "message",
					"text" : "replace",
					"numinlets" : 2,
					"fontname" : "Monaco",
					"numoutlets" : 1,
					"patching_rect" : [ 20.0, 110.0, 48.0, 17.0 ],
					"outlettype" : [ "" ],
					"id" : "obj-17",
					"fontsize" : 9.0
				}

			}
, 			{
				"box" : 				{
					"maxclass" : "comment",
					"text" : "rate, offset, duration",
					"numinlets" : 1,
					"fontname" : "Monaco",
					"numoutlets" : 0,
					"patching_rect" : [ 210.0, 110.0, 129.0, 19.0 ],
					"id" : "obj-18",
					"fontsize" : 9.0
				}

			}
 ],
		"lines" : [ 			{
				"patchline" : 				{
					"source" : [ "obj-13", 1 ],
					"destination" : [ "obj-1", 0 ],
					"hidden" : 0,
					"midpoints" : [  ]
				}

			}
, 			{
				"patchline" : 				{
					"source" : [ "obj-13", 0 ],
					"destination" : [ "obj-7", 1 ],
					"hidden" : 0,
					"midpoints" : [  ]
				}

			}
, 			{
				"patchline" : 				{
					"source" : [ "obj-6", 0 ],
					"destination" : [ "obj-7", 0 ],
					"hidden" : 0,
					"midpoints" : [  ]
				}

			}
, 			{
				"patchline" : 				{
					"source" : [ "obj-5", 0 ],
					"destination" : [ "obj-7", 0 ],
					"hidden" : 0,
					"midpoints" : [  ]
				}

			}
, 			{
				"patchline" : 				{
					"source" : [ "obj-13", 0 ],
					"destination" : [ "obj-7", 0 ],
					"hidden" : 0,
					"midpoints" : [  ]
				}

			}
, 			{
				"patchline" : 				{
					"source" : [ "obj-4", 0 ],
					"destination" : [ "obj-13", 0 ],
					"hidden" : 0,
					"midpoints" : [  ]
				}

			}
, 			{
				"patchline" : 				{
					"source" : [ "obj-3", 0 ],
					"destination" : [ "obj-13", 0 ],
					"hidden" : 0,
					"midpoints" : [  ]
				}

			}
, 			{
				"patchline" : 				{
					"source" : [ "obj-2", 0 ],
					"destination" : [ "obj-13", 0 ],
					"hidden" : 0,
					"midpoints" : [  ]
				}

			}
, 			{
				"patchline" : 				{
					"source" : [ "obj-17", 0 ],
					"destination" : [ "obj-16", 0 ],
					"hidden" : 0,
					"midpoints" : [  ]
				}

			}
 ]
	}

}
